<svg width="36" height="36" viewBox="0 0 36 36" fill="none" xmlns="http://www.w3.org/2000/svg">
<path d="M6.30065 14.2735H6.28658C6.03863 14.2738 5.7932 14.3232 5.56441 14.4188C5.33563 14.5145 5.12802 14.6544 4.95353 14.8305C4.77904 15.0067 4.64112 15.2157 4.54771 15.4453C4.4543 15.675 4.40724 15.9209 4.40924 16.1689C4.412 16.6705 4.61174 17.1509 4.96542 17.5066C5.31909 17.8623 5.79838 18.0647 6.29994 18.0703H6.31401C6.81913 18 7.29255 17.8494 7.64706 17.4897C7.82208 17.3115 7.96023 17.1006 8.05358 16.8689C8.14693 16.6372 8.19365 16.3894 8.19107 16.1397C8.18689 15.6418 7.98561 15.1659 7.6313 14.8161C7.27699 14.4664 6.79852 14.2712 6.30065 14.2735ZM6.3069 17.0521C6.06655 17.0535 5.83538 16.9598 5.66397 16.7913C5.57905 16.7098 5.51137 16.612 5.46494 16.5039C5.41851 16.3957 5.39428 16.2793 5.39369 16.1616C5.39281 16.043 5.41546 15.9254 5.46033 15.8156C5.50519 15.7058 5.57138 15.606 5.65506 15.522C5.73874 15.4379 5.83826 15.3713 5.94785 15.326C6.05745 15.2806 6.17494 15.2575 6.29355 15.2578H6.30058C6.41847 15.2557 6.5356 15.2771 6.64518 15.3206C6.75477 15.3641 6.85461 15.429 6.93893 15.5114C7.02325 15.5938 7.09037 15.6921 7.13638 15.8007C7.18239 15.9092 7.20639 16.0259 7.20698 16.1438C7.20759 16.2625 7.18478 16.3802 7.13987 16.4902C7.09496 16.6001 7.02882 16.7001 6.94524 16.7845C6.86165 16.8688 6.76226 16.9359 6.65274 16.9818C6.54322 17.0277 6.42573 17.0516 6.30698 17.0521H6.3069Z" fill="#333333"/>
<path d="M32.8393 13.5914C32.842 13.57 32.8433 13.5484 32.8431 13.5269C32.8425 12.7311 32.5537 11.9625 32.0302 11.3631C31.8954 11.2105 31.7453 11.0722 31.5821 10.9504L33.3038 10.9371C33.3704 10.9366 33.4362 10.9226 33.4973 10.8959C33.5583 10.8692 33.6133 10.8303 33.6589 10.7818C33.7045 10.7332 33.7397 10.6759 33.7625 10.6133C33.7853 10.5507 33.7951 10.4841 33.7914 10.4176C33.7587 10.0049 33.6749 9.59795 33.542 9.20595C33.251 8.3539 32.3543 7.80469 31.2536 7.80469H31.229C30.5618 7.80469 29.3527 7.81601 28.7994 7.81791L27.6932 5.80894C26.9208 4.44776 25.7988 2.88281 23.9548 2.88281H23.9307L10.4958 2.98828C8.98152 2.99939 7.64544 4.06041 6.73243 5.97066L5.60821 7.99917C5.05632 8.00212 3.83296 8.00958 3.15711 8.01457C2.04519 8.02273 1.14554 8.58572 0.864926 9.44817C0.737814 9.84154 0.659993 10.2492 0.633246 10.6617C0.630463 10.7283 0.641092 10.7947 0.664502 10.8571C0.687911 10.9195 0.723623 10.9766 0.769516 11.0249C0.815409 11.0732 0.870547 11.1118 0.931652 11.1384C0.992758 11.165 1.05859 11.179 1.12522 11.1797H1.12951L2.81975 11.1622C2.08675 11.7317 1.61938 12.6735 1.62739 13.7581C1.62755 13.7786 1.629 13.799 1.63175 13.8192L2.46629 20.0434C2.47783 20.4715 2.63799 20.8823 2.9193 21.2052C3.20061 21.5282 3.58553 21.7432 4.00803 21.8133L4.02273 23.8063C4.02518 24.1139 4.1493 24.408 4.36796 24.6244C4.58662 24.8408 4.88203 24.9617 5.18964 24.9609H5.1985L7.24761 24.9477C7.55691 24.9453 7.8526 24.8202 8.06978 24.6C8.28696 24.3797 8.40788 24.0823 8.40601 23.773L8.39153 21.8074L14.3038 21.764C14.2842 22.0272 14.2742 22.2919 14.2738 22.5579C14.2714 24.7709 14.969 26.9279 16.2667 28.7203C16.2873 28.7582 16.3129 28.7932 16.3426 28.8244C17.3221 30.1516 18.5995 31.2304 20.072 31.9738C21.5445 32.7173 23.171 33.1047 24.8205 33.1049C30.6361 33.1049 35.3674 28.3736 35.3674 22.558C35.3748 19.9246 34.3895 17.385 32.6081 15.4456L32.8393 13.5914ZM31.2362 8.78906H31.2528C31.9157 8.78906 32.4601 9.08438 32.6102 9.5239C32.6582 9.66557 32.6981 9.80985 32.7298 9.95604L29.991 9.97763L29.3416 8.8001C29.9452 8.79771 30.7401 8.78906 31.2363 8.78906H31.2362ZM7.60058 6.43774C7.60557 6.42881 7.61021 6.41967 7.61464 6.41046C8.0446 5.50695 8.9915 3.98348 10.5031 3.97237L23.9379 3.86719H23.9549C25.0114 3.86719 25.8744 4.59914 26.8343 6.29058L29.108 10.4122L26.7024 10.4315C26.5989 9.63492 26.2075 8.90376 25.602 8.37591C24.9965 7.84806 24.2188 7.56 23.4155 7.56605C22.6123 7.5721 21.839 7.87186 21.2415 8.40877C20.6441 8.94569 20.2637 9.68267 20.1722 10.4807L5.29714 10.5907L7.60058 6.43774ZM25.7079 10.4404L21.1667 10.4738C21.2585 9.94232 21.5354 9.46044 21.9484 9.1135C22.3614 8.76655 22.8838 8.5769 23.4232 8.57812H23.4407C23.7398 8.57488 24.0367 8.63059 24.3143 8.74208C24.5919 8.85356 24.8448 9.01864 25.0585 9.22788C25.3962 9.55439 25.6233 9.97834 25.7079 10.4404ZM1.68843 10.1847C1.71772 10.0387 1.75528 9.89445 1.80093 9.7527C1.94584 9.30705 2.49364 9.00436 3.16407 8.99944C3.66146 8.99578 4.45578 8.99114 5.06026 8.98784L4.40952 10.1611L1.68843 10.1847ZM7.24037 23.9652L5.19125 23.9803C5.14298 23.9799 5.09667 23.9611 5.06181 23.9277C5.04469 23.9109 5.03107 23.8909 5.02171 23.8688C5.01236 23.8467 5.00747 23.823 5.00732 23.799L4.99283 21.8329L7.40715 21.8151L7.42164 23.7812C7.42194 23.8296 7.40302 23.8762 7.36904 23.9107C7.33505 23.9452 7.28878 23.9648 7.24037 23.9652ZM14.4236 20.7783L4.31382 20.8534C4.08687 20.8535 3.86893 20.7645 3.70689 20.6056C3.62633 20.5271 3.56215 20.4333 3.51807 20.3297C3.474 20.2262 3.4509 20.1149 3.45011 20.0024C3.44988 19.9817 3.44835 19.9611 3.44554 19.9406L2.6117 13.7196C2.61564 12.4279 3.49314 11.6431 4.37767 11.5841C4.40394 11.5921 4.43082 11.5979 4.45803 11.6016H4.46169L29.9233 11.402C29.927 11.402 29.9304 11.3906 29.9342 11.3906H29.9511C30.2064 11.3922 30.4584 11.4486 30.69 11.5561C30.9216 11.6636 31.1274 11.8197 31.2934 12.0137C31.6499 12.4286 31.8498 12.9552 31.8585 13.5021L31.7237 14.5832C29.9373 13.0374 27.6837 12.1359 25.3241 12.0231C22.9644 11.9103 20.6351 12.5928 18.7095 13.9613C17.9004 14.5371 17.1763 15.2238 16.5583 16.0012L16.5501 14.8923C16.5494 14.8285 16.5361 14.7655 16.5109 14.7069C16.4858 14.6482 16.4493 14.5952 16.4035 14.5507C16.3578 14.5063 16.3037 14.4713 16.2444 14.4479C16.1851 14.4245 16.1217 14.413 16.0579 14.4141H16.0543C15.9901 14.4133 15.9265 14.4252 15.867 14.4493C15.8075 14.4734 15.7535 14.5091 15.708 14.5543C15.6625 14.5995 15.6265 14.6533 15.602 14.7126C15.5776 14.7719 15.5652 14.8355 15.5657 14.8996L15.5751 16.1821C15.5757 16.2461 15.589 16.3094 15.614 16.3682C15.6391 16.4271 15.6756 16.4804 15.7213 16.5252C15.767 16.57 15.8211 16.6053 15.8805 16.6291C15.9398 16.653 16.0033 16.6649 16.0673 16.6641H16.0708C15.2354 17.9028 14.6739 19.3054 14.4237 20.7783L14.4236 20.7783ZM17.355 28.5262L23.3097 22.5716C23.3806 22.5007 23.4282 22.4098 23.446 22.3111C23.4638 22.2124 23.4511 22.1105 23.4094 22.0193C23.0788 21.2882 22.9782 20.474 23.121 19.6845C23.2638 18.895 23.6431 18.1675 24.2088 17.5986C24.625 17.1796 25.1306 16.8601 25.6877 16.664C26.2448 16.468 26.8391 16.4005 27.426 16.4666L26.3166 17.5684C26.2602 17.6243 26.2182 17.6932 26.1942 17.7689C26.1702 17.8446 26.1649 17.9251 26.1788 18.0033L26.6015 20.3952C26.6187 20.4927 26.665 20.5827 26.7342 20.6535C26.8034 20.7243 26.8923 20.7726 26.9894 20.792L29.3035 21.2561C29.383 21.272 29.4652 21.2681 29.5428 21.2446C29.6204 21.2211 29.691 21.1789 29.7483 21.1215L30.9124 19.9574C30.9777 20.5436 30.9097 21.1369 30.7136 21.6932C30.5175 22.2494 30.1983 22.7542 29.7799 23.1698C29.211 23.7355 28.4836 24.1149 27.6941 24.2578C26.9047 24.4006 26.0904 24.3001 25.3594 23.9695C25.2682 23.9279 25.1664 23.9151 25.0677 23.9329C24.9689 23.9508 24.878 23.9983 24.8071 24.0692L18.8525 30.0234C18.2999 29.5808 17.7977 29.0787 17.355 28.5262ZM34.383 22.5581C34.383 27.8308 30.0933 32.1206 24.8205 32.1206C22.9911 32.1228 21.1998 31.5971 19.6618 30.6065L25.2709 24.9974C26.1422 25.3227 27.0878 25.3946 27.9982 25.2048C28.9087 25.0151 29.7468 24.5715 30.4157 23.9253C31.0846 23.279 31.5568 22.4567 31.7778 21.5533C31.9987 20.6499 31.9594 19.7024 31.6644 18.8204C31.6378 18.7409 31.5914 18.6694 31.5294 18.6129C31.4675 18.5563 31.3921 18.5165 31.3105 18.4973C31.2289 18.478 31.1437 18.48 31.063 18.5029C30.9823 18.5258 30.9089 18.569 30.8495 18.6283L29.2388 20.239L27.5125 19.8928L27.193 18.0853L28.7558 16.5332C28.8154 16.474 28.8588 16.4006 28.882 16.3199C28.9052 16.2392 28.9075 16.1539 28.8884 16.0721C28.8694 15.9903 28.8298 15.9147 28.7734 15.8525C28.7169 15.7903 28.6455 15.7436 28.5659 15.7167C27.6971 15.4213 26.7628 15.3758 25.8694 15.5854C24.976 15.7951 24.1594 16.2515 23.5127 16.9026C22.8474 17.572 22.3874 18.4177 22.1869 19.3399C21.9864 20.2622 22.0538 21.2225 22.3812 22.1077L16.7723 27.7172C15.9708 26.4667 15.4717 25.0467 15.3145 23.5698C15.1574 22.0928 15.3464 20.5996 15.8668 19.2084C16.3871 17.8173 17.2244 16.5665 18.3123 15.5552C19.4001 14.544 20.7086 13.8001 22.134 13.3825C23.5593 12.9649 25.0624 12.8852 26.524 13.1496C27.9855 13.414 29.3654 14.0153 30.5541 14.9057C31.7429 15.7962 32.7078 16.9514 33.3724 18.2797C34.037 19.6079 34.383 21.0728 34.383 22.5581Z" fill="#333333"/>
<path d="M13.67 14.4141H13.6664C13.6017 14.4142 13.5378 14.4272 13.4782 14.4521C13.4186 14.4771 13.3646 14.5136 13.3191 14.5596C13.2737 14.6055 13.2379 14.66 13.2136 14.7199C13.1893 14.7798 13.1771 14.8439 13.1778 14.9085L13.1872 16.1865C13.188 16.2502 13.2013 16.3132 13.2264 16.3718C13.2516 16.4304 13.2881 16.4834 13.3339 16.5278C13.3796 16.5722 13.4337 16.6071 13.493 16.6305C13.5523 16.6539 13.6157 16.6653 13.6794 16.6641H13.6831C13.7472 16.6649 13.8109 16.653 13.8704 16.6289C13.9298 16.6048 13.9839 16.5691 14.0294 16.5239C14.0749 16.4787 14.1109 16.4248 14.1354 16.3655C14.1598 16.3062 14.1721 16.2426 14.1717 16.1784L14.1622 14.8961C14.1616 14.8321 14.1484 14.7689 14.1233 14.71C14.0982 14.6511 14.0618 14.5978 14.0161 14.553C13.9704 14.5082 13.9163 14.4729 13.8569 14.4491C13.7975 14.4252 13.734 14.4134 13.67 14.4141Z" fill="#333333"/>
<path d="M11.2823 14.4141H11.2787C11.1473 14.4164 11.0221 14.4706 10.9306 14.5648C10.839 14.6591 10.7885 14.7858 10.7901 14.9172L10.7996 16.226C10.7999 16.358 10.8513 16.4848 10.9431 16.5796C11.0349 16.6744 11.1599 16.7299 11.2918 16.7344H11.2955C11.4278 16.7301 11.5531 16.674 11.6444 16.5782C11.7358 16.4825 11.786 16.3547 11.7841 16.2224L11.7745 14.918C11.7741 14.7865 11.7225 14.6603 11.6306 14.5662C11.5387 14.4721 11.4138 14.4175 11.2823 14.4141Z" fill="#333333"/>
</svg>
