<svg width="36" height="36" viewBox="0 0 36 36" fill="none" xmlns="http://www.w3.org/2000/svg">
<path d="M29.288 23.5938C26.0541 23.5938 22.5762 24.3665 22.5762 26.0626V33.3147C22.5762 36.8951 35.9999 36.8951 35.9999 33.3147V26.0626C35.9999 24.3665 32.5219 23.5938 29.288 23.5938ZM34.7796 33.4598C34.6874 33.8023 32.8575 34.7034 29.288 34.7034C25.7185 34.7034 23.8886 33.8023 23.7965 33.469V32.4988C25.095 33.1604 27.2397 33.469 29.288 33.469C31.3364 33.469 33.4817 33.1573 34.7796 32.4982V33.4598ZM34.7796 30.9909C34.6874 31.3335 32.8575 32.2346 29.288 32.2346C25.7185 32.2346 23.8886 31.3335 23.7965 31.0002V30.03C25.095 30.6885 27.2397 31.0002 29.288 31.0002C31.3364 31.0002 33.4817 30.6885 34.7796 30.0293V30.9909ZM34.7796 28.5221C34.6874 28.8647 32.8575 29.7658 29.288 29.7658C25.7185 29.7658 23.8886 28.8647 23.7965 28.5314V27.5611C25.095 28.2197 27.2397 28.5314 29.288 28.5314C31.3364 28.5314 33.4817 28.2197 34.7796 27.5605V28.5221ZM29.288 27.297C25.724 27.297 23.8947 26.3983 23.7965 26.0737V26.07C23.8947 25.7262 25.724 24.8282 29.288 24.8282C32.827 24.8282 34.6575 25.7132 34.7796 26.0626C34.6575 26.4119 32.827 27.297 29.288 27.297Z" fill="#333333"/>
<path d="M30.5097 19.3618C30.5093 19.3618 30.5088 19.3618 30.5085 19.3618H0.610169C0.321712 19.3615 0.0875595 19.5977 0.0872544 19.8895C0.0872544 24.8276 0.0872544 29.7656 0.0872544 34.7037C0.0869493 34.9954 0.320492 35.2323 0.608949 35.2326C0.609331 35.2326 -0.000381177 35.2326 1.7882e-07 35.2326H20.7458C21.0345 35.2326 21.2687 34.9958 21.2687 34.7037C21.2687 34.4116 21.0345 34.1747 20.7458 34.1747H1.13308V20.4197H29.9856V21.7424C29.9852 22.0342 30.2188 22.271 30.5072 22.2713C30.5076 22.2713 30.5081 22.2713 30.5085 22.2713C30.7969 22.2716 31.0311 22.0354 31.0314 21.7436C31.0314 21.7432 31.0314 21.7428 31.0314 21.7424V19.8908C31.0317 19.599 30.7981 19.3622 30.5097 19.3618Z" fill="#333333"/>
<path fill-rule="evenodd" clip-rule="evenodd" d="M15.2653 23.9482C13.4323 23.9482 11.9463 25.4513 11.9463 27.3055V27.3058C11.9482 29.159 13.4329 30.6609 15.265 30.6628H15.2653C17.0984 30.6628 18.5843 29.1597 18.5843 27.3055C18.5843 25.4513 17.0984 23.9482 15.2653 23.9482ZM13.0373 27.3057C13.0388 26.0615 14.0355 25.0533 15.2655 25.0519C16.4959 25.052 17.4933 26.0609 17.4933 27.3055C17.4933 28.5502 16.4958 29.5592 15.2653 29.5592C14.0349 29.5592 13.0374 28.5503 13.0373 27.3057Z" fill="#333333"/>
<path fill-rule="evenodd" clip-rule="evenodd" d="M6.99653 21.7158C6.83051 21.7155 6.67089 21.7809 6.55187 21.898L5.1251 23.4646L3.90474 24.6686C3.78878 24.8056 3.63477 25.0283 3.63477 25.2773V29.4904C3.63477 29.6507 3.69409 29.8054 3.80091 29.9239L6.28 32.6667C6.40037 32.8 6.57072 32.8761 6.74936 32.876H20.6691C21.02 32.876 21.3045 32.5882 21.3045 32.2332C21.3045 31.8783 21.0201 31.5905 20.6691 31.5905H7.03012L4.90621 29.2407V25.3209L7.25458 23.0013H24.3679C24.7188 23.0013 25.0033 22.7135 25.0033 22.3585C25.0033 22.0036 24.7188 21.7158 24.3679 21.7158H6.99653Z" fill="#333333"/>
<path d="M29.9997 17.3375L14.2109 2.58539C14.0012 2.38501 13.6707 2.39442 13.4726 2.60651C10.1235 6.19951 6.77446 9.7925 3.42542 13.3855C3.2273 13.5976 3.23658 13.932 3.44625 14.1324L3.0032 13.7098L7.50312 18.3468C7.71321 18.5472 8.04418 18.5373 8.24228 18.3248C8.44038 18.1123 8.43065 17.7774 8.22056 17.5771L4.54506 13.7263L13.8739 3.71798L29.0387 17.9146C30.0387 18.9261 30.5387 17.9145 29.9997 17.3375Z" fill="#333333"/>
<path fill-rule="evenodd" clip-rule="evenodd" d="M17.2606 8.73083C17.1401 8.61537 16.9796 8.5522 16.8135 8.55484L14.713 8.70452L13.0085 8.7337C12.8312 8.75294 12.5681 8.80809 12.3993 8.98921L9.54195 12.0546C9.43318 12.1713 9.37145 12.325 9.3688 12.4853L9.31234 16.2012C9.30954 16.3817 9.38189 16.5553 9.51192 16.6792L11.0033 18.3467C11.2586 18.5902 11.6608 18.5782 11.9015 18.32C12.1422 18.0617 12.1305 17.6549 11.8751 17.4114L10.588 15.9387L10.6364 12.7552L13.2948 9.90328L16.5766 9.84519L25.6315 18.2702C25.8868 18.5137 26.289 18.5018 26.5297 18.2435C26.7704 17.9853 26.7586 17.5784 26.5033 17.3349L17.2606 8.73083Z" fill="#333333"/>
<path d="M17.0718 16.069C18.3293 14.7353 20.4298 14.6735 21.7635 15.931C22.2555 16.3949 22.5744 16.9735 22.7178 17.586C22.7902 17.8949 22.5338 18.1634 22.2166 18.1634C21.9287 18.1634 21.6961 17.9389 21.6083 17.6647C21.4972 17.3175 21.2992 16.9928 21.0152 16.725C20.1193 15.8822 18.7103 15.9236 17.8655 16.8176C17.6296 17.0677 17.4629 17.3581 17.3646 17.6651C17.277 17.939 17.0446 18.1634 16.757 18.1634C16.4402 18.1634 16.1841 17.8953 16.2562 17.5868C16.3849 17.0359 16.6563 16.5105 17.0718 16.069Z" fill="#333333"/>
</svg>
