<svg width="36" height="36" viewBox="0 0 36 36" fill="none" xmlns="http://www.w3.org/2000/svg">
<path d="M12.8671 24.1439L6.05432 30.9568C5.94326 31.0679 5.88086 31.2185 5.88086 31.3756C5.88086 31.5327 5.94326 31.6833 6.05432 31.7944C6.16539 31.9054 6.31603 31.9678 6.4731 31.9678C6.63018 31.9678 6.78082 31.9054 6.89188 31.7944L13.7047 24.9815C13.7597 24.9265 13.8033 24.8612 13.8331 24.7894C13.8629 24.7175 13.8782 24.6405 13.8782 24.5627C13.8782 24.4849 13.8629 24.4079 13.8331 24.3361C13.8033 24.2642 13.7597 24.1989 13.7047 24.1439C13.6497 24.0889 13.5844 24.0453 13.5126 24.0155C13.4407 23.9858 13.3637 23.9705 13.2859 23.9705C13.2082 23.9705 13.1311 23.9858 13.0593 24.0155C12.9874 24.0453 12.9221 24.0889 12.8671 24.1439H12.8671Z" fill="#333333"/>
<path d="M11.8677 22.3075C11.8127 22.2525 11.7474 22.2089 11.6756 22.1791C11.6037 22.1494 11.5267 22.134 11.4489 22.134C11.3712 22.134 11.2941 22.1494 11.2223 22.1791C11.1504 22.2089 11.0851 22.2525 11.0302 22.3075L4.21741 29.1204C4.16241 29.1754 4.11879 29.2407 4.08903 29.3125C4.05926 29.3844 4.04395 29.4614 4.04395 29.5392C4.04395 29.6169 4.05926 29.694 4.08903 29.7658C4.11879 29.8377 4.16241 29.903 4.21741 29.958C4.2724 30.013 4.33769 30.0566 4.40955 30.0863C4.4814 30.1161 4.55841 30.1314 4.63619 30.1314C4.71396 30.1314 4.79098 30.1161 4.86283 30.0863C4.93469 30.0566 4.99997 30.013 5.05497 29.958L11.8678 23.1452C11.9228 23.0902 11.9664 23.0249 11.9962 22.953C12.026 22.8811 12.0413 22.8041 12.0413 22.7263C12.0413 22.6485 12.0259 22.5715 11.9962 22.4997C11.9664 22.4278 11.9227 22.3625 11.8677 22.3075Z" fill="#333333"/>
<path d="M11.4836 16.1778L12.7019 17.3961L11.2829 18.1726C11.2336 18.1996 11.1883 18.2335 11.1485 18.2733L1.51783 27.9035C0.862818 28.56 0.49496 29.4496 0.49496 30.3769C0.49496 31.3043 0.862818 32.1938 1.51783 32.8503L3.16156 34.4941C3.81807 35.1491 4.70757 35.5169 5.63494 35.5169C6.56231 35.5169 7.45182 35.1491 8.10832 34.4941L17.7387 24.8636C17.7785 24.8238 17.8125 24.7785 17.8395 24.7292L18.616 23.3102L30.3442 35.0385C30.9677 35.6563 31.8105 36.002 32.6882 36C33.5659 35.998 34.4071 35.6484 35.0278 35.0277C35.6484 34.4071 35.998 33.5659 36 32.6881C36.002 31.8104 35.6563 30.9676 35.0385 30.3441L22.2824 17.5879L23.4137 16.4565C23.4687 16.4015 23.5124 16.3362 23.5421 16.2643C23.5719 16.1925 23.5872 16.1155 23.5872 16.0377C23.5872 15.9599 23.5719 15.8829 23.5421 15.8111C23.5124 15.7392 23.4687 15.6739 23.4137 15.6189L23.1567 15.3619L30.8301 7.68844L32.774 6.99909C32.9057 6.95234 33.0165 6.86055 33.087 6.73996L35.4374 2.72015C35.5035 2.60713 35.5302 2.47539 35.5135 2.34554C35.4968 2.21569 35.4375 2.09504 35.3449 2.00246L34.0095 0.666588C33.917 0.574012 33.7963 0.514724 33.6665 0.497993C33.5366 0.481262 33.4049 0.508032 33.2919 0.574118L29.2721 2.92446C29.1515 2.99498 29.0597 3.10585 29.013 3.23749L28.3232 5.18141L20.6498 12.8549L20.3928 12.5978C20.3378 12.5428 20.2725 12.4992 20.2006 12.4694C20.1288 12.4397 20.0518 12.4244 19.974 12.4244C19.8962 12.4244 19.8192 12.4397 19.7474 12.4694C19.6755 12.4992 19.6102 12.5428 19.5552 12.5978L18.4238 13.7294L16.1779 11.483C16.7679 9.99741 16.9211 8.37412 16.6194 6.80436C16.3177 5.2346 15.5737 3.78374 14.4751 2.62265C13.3764 1.46156 11.9689 0.638605 10.4182 0.250703C8.86747 -0.137199 7.23822 -0.0738915 5.72229 0.43317C5.62657 0.465133 5.54061 0.521027 5.47256 0.595548C5.40451 0.670068 5.35663 0.760743 5.33346 0.858966C5.3103 0.957189 5.31262 1.0597 5.34021 1.15678C5.36779 1.25385 5.41972 1.34227 5.49108 1.41363L8.42676 4.34934L7.75215 7.71086L4.24963 8.32989L1.42029 5.48073C1.34904 5.40903 1.26065 5.35673 1.16352 5.32879C1.06638 5.30085 0.963713 5.2982 0.865262 5.32108C0.76681 5.34396 0.67584 5.39163 0.600984 5.45955C0.526128 5.52747 0.46987 5.61339 0.43755 5.70916C-0.0723901 7.22543 -0.138076 8.85591 0.248239 10.4083C0.634555 11.9607 1.45676 13.3702 2.61787 14.4706C3.77898 15.571 5.23057 16.3164 6.80143 16.6189C8.37228 16.9214 9.99688 16.7683 11.4836 16.1778ZM17.9529 22.0546C17.9523 22.056 17.9515 22.0573 17.9508 22.0585L16.8412 24.0861L7.27076 33.6566C6.83657 34.0898 6.24826 34.3331 5.6349 34.3331C5.02154 34.3331 4.43323 34.0898 3.99904 33.6566L2.35531 32.0129C1.92213 31.5786 1.67886 30.9903 1.67886 30.377C1.67886 29.7636 1.92213 29.1753 2.35531 28.7411L11.9257 19.1706L13.9535 18.0609L13.9569 18.059L15.7843 17.0589L18.9528 20.2274L17.9529 22.0546ZM22.4808 19.4611L34.201 31.1816C34.5976 31.5828 34.8193 32.1247 34.8176 32.6888C34.816 33.2529 34.5912 33.7934 34.1923 34.1923C33.7934 34.5912 33.2528 34.816 32.6887 34.8176C32.1246 34.8192 31.5828 34.5975 31.1816 34.2009L19.2084 22.2276L19.8618 21.0337C20.0282 21.1242 20.2082 21.1871 20.3948 21.2199L29.7487 30.5739C29.8036 30.6289 29.8689 30.6725 29.9408 30.7022C30.0126 30.732 30.0897 30.7473 30.1674 30.7473C30.2452 30.7473 30.3222 30.732 30.3941 30.7022C30.4659 30.6725 30.5312 30.6289 30.5862 30.5739C30.6412 30.5189 30.6848 30.4536 30.7146 30.3817C30.7444 30.3099 30.7597 30.2329 30.7597 30.1551C30.7597 30.0773 30.7444 30.0003 30.7146 29.9284C30.6848 29.8566 30.6412 29.7913 30.5862 29.7363L21.755 20.9053C21.8285 20.8522 21.8978 20.7936 21.9623 20.7299C22.1274 20.5657 22.2583 20.3704 22.3475 20.1552C22.4366 19.94 22.4821 19.7093 22.4815 19.4765C22.4813 19.4714 22.4808 19.4664 22.4808 19.4611ZM29.2553 5.92464C29.3175 5.86233 29.3652 5.78693 29.3947 5.70391L30.0568 3.83783L33.4952 1.82734L34.1843 2.51651L32.1739 5.95493L30.3079 6.61703C30.2249 6.64653 30.1495 6.69416 30.0871 6.75645L22.3193 14.5244L21.4874 13.6925L29.2553 5.92464ZM19.9744 13.8544L22.1578 16.0378L21.2331 16.9626L19.0496 14.7791L19.9744 13.8544ZM21.125 19.0605C21.1798 19.1151 21.2234 19.18 21.2531 19.2514C21.2828 19.3228 21.2982 19.3994 21.2983 19.4768C21.2984 19.5541 21.2832 19.6308 21.2536 19.7023C21.2241 19.7738 21.1807 19.8387 21.126 19.8934C21.0713 19.9481 21.0063 19.9915 20.9348 20.0211C20.8633 20.0506 20.7867 20.0658 20.7093 20.0657C20.632 20.0656 20.5554 20.0503 20.484 20.0205C20.4125 19.9908 20.3477 19.9473 20.2931 19.8924L16.1197 15.719C16.0649 15.6644 16.0213 15.5996 15.9916 15.5281C15.9619 15.4567 15.9465 15.3801 15.9464 15.3028C15.9463 15.2254 15.9615 15.1488 15.9911 15.0773C16.0206 15.0058 16.064 14.9408 16.1187 14.8861C16.1734 14.8314 16.2384 14.788 16.3099 14.7585C16.3814 14.7289 16.458 14.7137 16.5354 14.7138C16.6127 14.7139 16.6893 14.7293 16.7607 14.759C16.8322 14.7887 16.897 14.8323 16.9516 14.8871L21.125 19.0605ZM1.3081 7.0485L3.62789 9.38429C3.69525 9.45211 3.77803 9.50261 3.86915 9.53149C3.96027 9.56037 4.05702 9.56676 4.15115 9.55011L8.35671 8.80688C8.47403 8.78615 8.58236 8.73051 8.66756 8.64724C8.75277 8.56397 8.81087 8.45694 8.83429 8.34013L9.65028 4.27117C9.66946 4.17553 9.66473 4.07663 9.63649 3.98327C9.60826 3.8899 9.5574 3.80495 9.48843 3.73597L7.05841 1.30618C8.20915 1.08728 9.39602 1.15408 10.5149 1.50071C11.6338 1.84735 12.6506 2.46323 13.4761 3.29435C14.51 4.33415 15.2034 5.66369 15.4644 7.10665C15.7254 8.54961 15.5415 10.0378 14.9373 11.3739C14.8872 11.4837 14.8719 11.6062 14.8933 11.725C14.9148 11.8437 14.972 11.9531 15.0574 12.0384L16.5508 13.531C16.5458 13.531 16.5408 13.5302 16.5357 13.5302C16.3028 13.5296 16.0721 13.5752 15.857 13.6643C15.6418 13.7534 15.4465 13.8843 15.2822 14.0495C15.2186 14.114 15.16 14.1833 15.1068 14.2567L14.494 13.6439C14.439 13.5889 14.3737 13.5452 14.3019 13.5155C14.23 13.4857 14.153 13.4704 14.0752 13.4704C13.9974 13.4704 13.9204 13.4857 13.8486 13.5155C13.7767 13.5452 13.7114 13.5889 13.6564 13.6439C13.6014 13.6989 13.5578 13.7642 13.5281 13.836C13.4983 13.9079 13.483 13.9849 13.483 14.0626C13.483 14.1404 13.4983 14.2174 13.5281 14.2893C13.5578 14.3611 13.6014 14.4264 13.6564 14.4814L14.7919 15.6168C14.8247 15.8034 14.8875 15.9834 14.978 16.1498L13.7843 16.8034L12.0383 15.0575C11.953 14.9721 11.8436 14.9149 11.7249 14.8935C11.6061 14.872 11.4836 14.8874 11.3738 14.9374C10.0377 15.5417 8.54951 15.7255 7.10656 15.4645C5.66362 15.2035 4.33409 14.5101 3.2943 13.4761C2.46179 12.6496 1.84521 11.6311 1.49886 10.5102C1.15251 9.3894 1.087 8.20061 1.3081 7.0485Z" fill="#333333"/>
</svg>
