<svg width="36" height="36" viewBox="0 0 36 36" fill="none" xmlns="http://www.w3.org/2000/svg">
<path d="M0.578193 21.185L3.89842 21.5048C4.25357 22.9163 4.82152 24.2654 5.58274 25.5058L3.46888 28.0585C3.36728 28.1812 3.3151 28.3373 3.32255 28.4964C3.33 28.6555 3.39655 28.8061 3.50918 28.9188L7.10415 32.5137C7.21677 32.6264 7.36736 32.6929 7.52646 32.7004C7.68557 32.7079 7.84173 32.6557 7.96441 32.5541L10.5213 30.4366C11.7624 31.1943 13.1093 31.7631 14.5178 32.1244L14.8376 35.4334C14.8534 35.5904 14.9276 35.7358 15.0455 35.8407C15.1634 35.9456 15.3164 36.0024 15.4742 35.9999H20.5708C20.7286 36.0024 20.8816 35.9456 20.9995 35.8407C21.1174 35.7358 21.1916 35.5904 21.2074 35.4334L21.5272 32.1189C22.9384 31.7649 24.2876 31.1979 25.5281 30.4376L28.0806 32.553C28.2032 32.6547 28.3593 32.707 28.5184 32.6996C28.6775 32.6923 28.8282 32.6259 28.9409 32.5133L32.5359 28.9188C32.6484 28.8062 32.715 28.6556 32.7224 28.4965C32.7299 28.3375 32.6777 28.1813 32.5762 28.0587L30.4591 25.5016C31.2169 24.2604 31.7857 22.9133 32.147 21.5047L35.4225 21.1849C35.5806 21.1694 35.7274 21.0957 35.8341 20.9781C35.9408 20.8604 36 20.7072 36 20.5484V15.4516C36 15.2926 35.9408 15.1393 35.8339 15.0216C35.727 14.9039 35.5801 14.8302 35.4218 14.815L32.1016 14.4952C31.7464 13.0837 31.1785 11.7346 30.4173 10.4942L32.5311 7.9415C32.6323 7.81937 32.6844 7.66403 32.6775 7.50561C32.6706 7.34719 32.6051 7.19699 32.4937 7.08415L28.9442 3.48912C28.8318 3.37528 28.6808 3.3077 28.521 3.2997C28.3613 3.2917 28.2043 3.34386 28.0811 3.4459L25.5242 5.56345C24.2831 4.80575 22.9362 4.23691 21.5277 3.87562L21.2079 0.566586C21.1921 0.409569 21.1179 0.264216 21 0.159304C20.8821 0.0543913 20.7291 -0.00243292 20.5714 7.99183e-05H15.4747C15.3169 -0.00243292 15.1639 0.0543913 15.046 0.159304C14.9281 0.264216 14.8539 0.409569 14.8381 0.566586L14.5183 3.88111C13.1071 4.23514 11.7581 4.80206 10.5176 5.56235L7.96441 3.44736C7.84183 3.34566 7.68572 3.29335 7.52662 3.30067C7.36752 3.30799 7.21687 3.37441 7.10415 3.48693L3.50918 7.08159C3.3966 7.19421 3.33009 7.34478 3.32264 7.50384C3.31518 7.6629 3.36733 7.81903 3.46888 7.94168L5.5864 10.4984C4.82874 11.7394 4.25992 13.0863 3.8986 14.4948L0.578193 14.8146C0.419859 14.8299 0.272896 14.9036 0.165988 15.0214C0.0590812 15.1392 -9.82852e-05 15.2926 1.22532e-07 15.4516V20.5484C-7.3885e-06 20.7074 0.059213 20.8607 0.166112 20.9784C0.27301 21.0961 0.419922 21.1698 0.578193 21.185ZM1.27919 16.0326L4.47798 15.7243C4.61299 15.7113 4.74036 15.6557 4.8417 15.5655C4.94303 15.4754 5.01309 15.3553 5.04174 15.2227C5.39244 13.6454 6.02563 12.1445 6.91072 10.7927C6.98444 10.6784 7.01984 10.5437 7.01179 10.408C7.00374 10.2723 6.95265 10.1426 6.86595 10.0379L4.82546 7.57445L7.59701 4.80287L10.0608 6.84348C10.1668 6.93124 10.2982 6.98249 10.4356 6.98962C10.573 6.99675 10.7091 6.95937 10.8236 6.88304C12.1692 5.99257 13.6689 5.36046 15.2459 5.01905C15.3777 4.99287 15.4975 4.92505 15.5878 4.82559C15.6781 4.72613 15.7341 4.60029 15.7474 4.46662L16.0554 1.27892H19.9901L20.2984 4.46634C20.3116 4.60068 20.3674 4.72728 20.4576 4.82768C20.5478 4.92808 20.6678 4.99702 20.8 5.02444C22.3771 5.37414 23.878 6.00639 25.23 6.89063C25.3443 6.96414 25.4792 6.99929 25.6149 6.99098C25.7506 6.98267 25.8801 6.93132 25.9847 6.84439L28.4457 4.80588L31.1769 7.5718L29.1341 10.0388C29.0463 10.1448 28.9951 10.2763 28.988 10.4137C28.9809 10.551 29.0183 10.6871 29.0946 10.8015C29.985 12.1472 30.6171 13.6469 30.9585 15.2239C30.9872 15.3565 31.0573 15.4765 31.1586 15.5666C31.2599 15.6568 31.3873 15.7124 31.5223 15.7254L34.7208 16.0326V19.9682L31.5668 20.2758C31.4319 20.289 31.3047 20.3446 31.2035 20.4347C31.1023 20.5249 31.0324 20.6448 31.0038 20.7773C30.653 22.3546 30.0198 23.8554 29.1348 25.2073C29.0611 25.3216 29.0257 25.4563 29.0337 25.592C29.0418 25.7277 29.0928 25.8574 29.1796 25.9621L31.22 28.4255L28.4486 31.1971L25.9847 29.1566C25.8787 29.0689 25.7473 29.0176 25.6099 29.0105C25.4725 29.0033 25.3364 29.0407 25.2219 29.1171C23.8763 30.0075 22.3766 30.6396 20.7996 30.981C20.6678 31.0072 20.548 31.075 20.4577 31.1745C20.3674 31.274 20.3114 31.3998 20.2981 31.5335L19.9901 34.7211H16.0554L15.7471 31.5337C15.7339 31.3993 15.6781 31.2727 15.5879 31.1723C15.4977 31.0719 15.3777 31.003 15.2455 30.9756C13.6684 30.6259 12.1675 29.9936 10.8155 29.1094C10.7012 29.0359 10.5663 29.0007 10.4306 29.009C10.2949 29.0173 10.1654 29.0687 10.0608 29.1556L7.59701 31.1968L4.82546 28.4255L6.86595 25.9618C6.95368 25.8558 7.0049 25.7244 7.01201 25.587C7.01912 25.4496 6.98174 25.3136 6.90542 25.1991C6.01501 23.8534 5.38292 22.3538 5.04146 20.7767C5.01279 20.6441 4.94273 20.5241 4.8414 20.434C4.74006 20.3439 4.6127 20.2883 4.47771 20.2753L1.27919 19.9674V16.0326Z" fill="#333333"/>
<path d="M18.0225 28.5625C20.1115 28.5625 22.1537 27.943 23.8906 26.7823C25.6276 25.6217 26.9814 23.972 27.7808 22.0419C28.5803 20.1119 28.7894 17.9881 28.3819 15.9391C27.9743 13.8902 26.9683 12.0081 25.4911 10.5309C24.014 9.05375 22.1319 8.04776 20.083 7.64021C18.0341 7.23266 15.9103 7.44184 13.9803 8.2413C12.0503 9.04076 10.4007 10.3946 9.24005 12.1316C8.07944 13.8686 7.45996 15.9108 7.45996 17.9999C7.46315 20.8003 8.57702 23.4851 10.5572 25.4653C12.5374 27.4454 15.2221 28.5593 18.0225 28.5625ZM18.0225 8.71647C19.8585 8.71649 21.6534 9.26096 23.18 10.281C24.7066 11.3011 25.8964 12.751 26.599 14.4473C27.3016 16.1436 27.4855 18.0102 27.1273 19.811C26.7691 21.6118 25.8849 23.266 24.5866 24.5643C23.2883 25.8626 21.6342 26.7467 19.8334 27.1049C18.0327 27.4631 16.1661 27.2792 14.4698 26.5766C12.7735 25.874 11.3237 24.6841 10.3037 23.1574C9.2836 21.6308 8.73915 19.8359 8.73915 17.9999C8.74198 15.5386 9.72095 13.179 11.4613 11.4386C13.2017 9.69824 15.5613 8.71927 18.0225 8.71647Z" fill="#333333"/>
<path d="M16.377 21.039C16.4965 21.1556 16.6568 21.2209 16.8238 21.2209C16.9908 21.2209 17.1511 21.1556 17.2706 21.039L22.5588 15.876C22.6196 15.8175 22.6683 15.7476 22.7019 15.6702C22.7356 15.5928 22.7536 15.5095 22.755 15.4251C22.7563 15.3407 22.7409 15.2569 22.7097 15.1784C22.6785 15.1 22.6321 15.0286 22.5731 14.9682C22.5141 14.9078 22.4438 14.8597 22.3661 14.8266C22.2885 14.7935 22.2051 14.7761 22.1207 14.7754C22.0363 14.7747 21.9526 14.7907 21.8744 14.8226C21.7962 14.8544 21.7251 14.9013 21.6652 14.9608L16.8238 19.6875L14.3354 17.2579C14.2753 17.1993 14.2043 17.153 14.1263 17.1218C14.0483 17.0906 13.9649 17.075 13.8809 17.076C13.797 17.0771 13.714 17.0946 13.6368 17.1277C13.5596 17.1607 13.4896 17.2087 13.431 17.2688C13.3723 17.3289 13.326 17.4 13.2948 17.478C13.2636 17.556 13.2481 17.6393 13.2491 17.7233C13.2501 17.8073 13.2676 17.8903 13.3007 17.9675C13.3338 18.0447 13.3817 18.1146 13.4418 18.1733L16.377 21.039Z" fill="#333333"/>
</svg>
